<?xml version="1.0" encoding="UTF-8" standalone="no"?>
<svg width="300px" height="69px" viewBox="0 0 300 69" version="1.1" xmlns="http://www.w3.org/2000/svg" xmlns:xlink="http://www.w3.org/1999/xlink">
    <g id="covalent-logo" fill-rule="evenodd">
        <g id="covalent">
            <g id="Group" transform="translate(0.000000, 9.000000)">
                <path d="M25.5,0 L51,14.75 L49.2586371,44.25 L25.5,59 L1.58305719,44.25 L-1.68724468e-15,14.75 L25.5,0 Z M25.5,2.94499165 L48.4543293,16.2224958 L46.8712721,42.7775042 L25.5,56.0550083 L4.12872794,42.7775042 L2.54567075,16.2224958 L25.5,2.94499165 Z" id="Combined-Shape"></path>
                <path d="M43.9838902,30.195 C43.5069139,29.9442 42.9498056,29.9340667 42.4588381,30.1076 L40.9910231,29.3362 L40.9910231,23.2144 L42.4359432,22.348 C42.6140143,22.4024667 42.7984452,22.4379333 42.9892357,22.4379333 C43.3352025,22.4379333 43.6760815,22.3442 43.9724428,22.1656 C44.4087171,21.9034 44.7165258,21.4879333 44.8399036,20.9964667 C44.9620096,20.5037333 44.8856934,19.9932667 44.6224025,19.5588 C44.1009084,18.6962 42.8722175,18.3896667 42.0034847,18.9115333 C41.5226926,19.2003333 41.2225156,19.669 41.1233045,20.1794667 L39.7190863,21.0218 L34.6313394,17.9830667 L34.6313394,16.306 C35.0192801,15.9576667 35.2673077,15.4598667 35.2673077,14.9 C35.2673077,13.8524667 34.4112943,13 33.3594026,13 C32.307511,13 31.4514975,13.8524667 31.4514975,14.9 C31.4514975,15.4598667 31.6995252,15.9576667 32.0874659,16.306 L32.0874659,17.9830667 L26.9997189,21.0230667 L21.911972,17.9830667 L21.911972,16.306 C22.2999127,15.9576667 22.5479404,15.4598667 22.5479404,14.9 C22.5479404,13.8524667 21.6919269,13 20.6400353,13 C19.5881436,13 18.7321301,13.8524667 18.7321301,14.9 C18.7321301,15.4598667 18.9801578,15.9576667 19.3680985,16.306 L19.3680985,17.9830667 L14.2816235,21.0218 L12.8774053,20.1794667 C12.7781943,19.669 12.4780172,19.1990667 11.9972251,18.9115333 C11.1284923,18.3884 9.90107337,18.6962 9.37830737,19.5575333 C9.11374453,19.992 9.03742833,20.5037333 9.15953425,20.9964667 C9.28291212,21.4879333 9.59072081,21.9034 10.0269951,22.1656 C10.3246283,22.3442 10.6642354,22.4379333 11.0102022,22.4379333 C11.2009927,22.4379333 11.3854235,22.4024667 11.5634947,22.348 L13.0084148,23.2156667 L13.0084148,29.3362 L11.5418718,30.1088667 C11.0509042,29.9353333 10.4937959,29.9442 10.0155477,30.1962667 C9.08576192,30.6864667 8.72961964,31.8378667 9.22058722,32.7638 C9.55256271,33.3882667 10.1987066,33.7758667 10.9084473,33.7758667 C11.2175279,33.7758667 11.5240646,33.6998667 11.798803,33.5554667 C12.2948583,33.2945333 12.6217461,32.8423333 12.7489397,32.3394667 L14.2409215,31.5541333 L19.3680985,34.6169333 L19.3680985,40.7362 L17.9015555,41.5088667 C17.4093159,41.3353333 16.8522076,41.3454667 16.3752314,41.5962667 C15.4454456,42.0864667 15.0893033,43.2378667 15.5802709,44.1638 C15.9122464,44.7882667 16.5583903,45.1758667 17.268131,45.1758667 C17.5772116,45.1758667 17.8837483,45.0998667 18.1584867,44.9554667 C18.654542,44.6945333 18.9814297,44.2423333 19.1086234,43.7394667 L20.6006052,42.9541333 L25.7277822,46.0169333 L25.7277822,47.694 C25.3398415,48.0423333 25.0918138,48.5401333 25.0918138,49.1 C25.0918138,50.1475333 25.9478273,51 26.9997189,51 C28.0516106,51 28.9076241,50.1475333 28.9076241,49.1 C28.9076241,48.5401333 28.6595964,48.0423333 28.2716557,47.694 L28.2716557,46.0169333 L33.3988327,42.9541333 L34.8908145,43.7394667 C35.0192801,44.2436 35.3448959,44.6945333 35.8409512,44.9567333 C36.1144176,45.0998667 36.4222263,45.1758667 36.7313069,45.1758667 C37.4410476,45.1758667 38.0871915,44.7882667 38.419167,44.1638 C38.9114065,43.2378667 38.5539923,42.0852 37.6242065,41.5962667 C37.1472302,41.3442 36.590122,41.3353333 36.0991544,41.5088667 L34.6313394,40.7362 L34.6313394,34.6169333 L39.7585164,31.5541333 L41.2504982,32.3394667 C41.3789638,32.8436 41.7045796,33.2945333 42.2006349,33.5567333 C42.4741013,33.6998667 42.78191,33.7758667 43.0909906,33.7758667 C43.8007313,33.7758667 44.4468752,33.3882667 44.7788507,32.7638 C45.2710902,31.8378667 44.913676,30.6852 43.9838902,30.195 L43.9838902,30.195 Z M32.0874659,40.7818 L26.9997189,43.8218 L21.911972,40.7818 L21.911972,34.6169333 L26.9997189,31.5769333 L32.0874659,34.6169333 L32.0874659,40.7818 L32.0874659,40.7818 Z M38.4471496,29.3818 L33.3594026,32.4218 L28.2716557,29.3818 L28.2716557,23.2169333 L33.3594026,20.1769333 L38.4471496,23.2169333 L38.4471496,29.3818 L38.4471496,29.3818 Z" id="Shape"></path>
            </g>
        </g>
    </g>
</svg>